<svg width="18" height="17" viewBox="0 0 18 17" fill="none" xmlns="http://www.w3.org/2000/svg">
<path d="M15.7063 16.6066L9.99126 10.8906C8.76505 11.7624 7.25608 12.1417 5.7634 11.9533C4.27073 11.7649 2.9033 11.0226 1.93213 9.87356C0.960954 8.72448 0.456918 7.25248 0.519915 5.74928C0.582912 4.24609 1.20834 2.82142 2.27226 1.75763C3.33588 0.693382 4.76054 0.0676023 6.26385 0.00433442C7.76715 -0.0589334 9.23936 0.444929 10.3886 1.41605C11.5379 2.38716 12.2804 3.75465 12.4689 5.24743C12.6574 6.74021 12.2781 8.24933 11.4063 9.47563L17.1213 15.1916L15.7073 16.6056L15.7063 16.6066V16.6066ZM6.51426 1.99963C5.59432 1.99942 4.70242 2.3163 3.98884 2.8969C3.27526 3.47749 2.78361 4.28631 2.59673 5.18707C2.40985 6.08782 2.53917 7.02547 2.96289 7.84202C3.38661 8.65856 4.07883 9.3041 4.92293 9.66987C5.76703 10.0356 6.71141 10.0993 7.59695 9.85006C8.48249 9.60084 9.25506 9.054 9.7845 8.30168C10.3139 7.54936 10.5679 6.63755 10.5035 5.71986C10.4392 4.80217 10.0605 3.93471 9.43126 3.26363L10.0363 3.86363L9.35426 3.18363L9.34226 3.17163C8.97183 2.79893 8.53114 2.50342 8.0457 2.30225C7.56026 2.10107 7.03973 1.99821 6.51426 1.99963V1.99963Z" fill="#757575"/>
</svg>
