<svg width="37" height="38" viewBox="0 0 37 38" fill="none" xmlns="http://www.w3.org/2000/svg">
<path fill-rule="evenodd" clip-rule="evenodd" d="M18.5603 0.603516C8.50186 0.603516 0.338501 8.76688 0.338501 18.8253C0.338501 28.8837 8.50186 37.0471 18.5603 37.0471C28.6187 37.0471 36.7821 28.8837 36.7821 18.8253C36.7821 8.76688 28.6187 0.603516 18.5603 0.603516ZM18.5603 6.07007C21.5851 6.07007 24.0268 8.51178 24.0268 11.5366C24.0268 14.5614 21.5851 17.0031 18.5603 17.0031C15.5355 17.0031 13.0937 14.5614 13.0937 11.5366C13.0937 8.51178 15.5355 6.07007 18.5603 6.07007ZM7.62722 26.0776C9.97783 29.6127 14.0048 31.9451 18.5603 31.9451C23.1157 31.9451 27.1428 29.6127 29.4934 26.0776C29.4387 22.4515 22.1864 20.4653 18.5603 20.4653C14.9159 20.4653 7.68188 22.4515 7.62722 26.0776Z" fill="#2FC18C"/>
</svg>
