<svg width="151" height="112" viewBox="0 0 151 112" fill="none" xmlns="http://www.w3.org/2000/svg">
<path d="M3.84 20.2H30.4V28.008H12.608V39.08H28.992V46.888H12.608V65H3.84V20.2ZM44.724 54.248C44.724 55.7413 44.916 56.8293 45.3 57.512C45.684 58.1947 46.3027 58.536 47.156 58.536C47.668 58.536 48.1587 58.4933 48.628 58.408C49.14 58.3227 49.7587 58.1307 50.484 57.832L51.38 64.36C50.6973 64.7013 49.652 65.0427 48.244 65.384C46.836 65.7253 45.3853 65.896 43.892 65.896C41.46 65.896 39.604 65.3413 38.324 64.232C37.044 63.08 36.404 61.2027 36.404 58.6V20.2H44.724V54.248Z" fill="#444955"/>
<path d="M91 17.2857C81.4676 17.2857 73.6062 24.375 72.4562 33.5357C73.3008 33.1964 74.2172 33 75.1875 33C77.5684 33 79.5 34.9196 79.5 37.2857V48.7143C79.5 51.0804 77.5684 53 75.1875 53C71.2164 53 68 49.8036 68 45.8571V35.8571C68 23.2321 78.2961 13 91 13C103.704 13 114 23.2321 114 35.8571V45.8571C114 49.8036 110.784 53 106.812 53C104.432 53 102.5 51.0804 102.5 48.7143V37.2857C102.5 34.9196 104.432 33 106.812 33C107.783 33 108.699 33.1875 109.544 33.5357C108.394 24.375 100.532 17.2857 91 17.2857Z" fill="#2FC18C"/>
<path d="M32.528 86H36.272V81.248L40.112 80.144V86H46.64V89.36H40.112V102.656C40.112 104.32 40.32 105.504 40.736 106.208C41.152 106.88 41.856 107.216 42.848 107.216C43.68 107.216 44.384 107.136 44.96 106.976C45.536 106.784 46.176 106.544 46.88 106.256L47.744 109.184C46.88 109.6 45.936 109.936 44.912 110.192C43.888 110.448 42.784 110.576 41.6 110.576C39.648 110.576 38.272 110.032 37.472 108.944C36.672 107.824 36.272 105.968 36.272 103.376V89.36H32.528V86ZM55.4176 86V99.68C55.4176 100.928 55.4816 102.032 55.6096 102.992C55.7696 103.92 56.0256 104.704 56.3776 105.344C56.7296 105.952 57.2096 106.416 57.8176 106.736C58.4256 107.056 59.1936 107.216 60.1216 107.216C60.9856 107.216 61.7536 107.088 62.4256 106.832C63.0976 106.544 63.6896 106.16 64.2016 105.68C64.7456 105.2 65.2096 104.656 65.5936 104.048C66.0096 103.408 66.3456 102.736 66.6016 102.032V86H70.4416V103.184C70.4416 104.336 70.4736 105.536 70.5376 106.784C70.6336 108 70.7776 109.072 70.9696 110H68.3296L67.3696 106.208H67.1296C66.3936 107.456 65.4016 108.496 64.1536 109.328C62.9056 110.16 61.3216 110.576 59.4016 110.576C58.1216 110.576 56.9856 110.416 55.9936 110.096C55.0336 109.808 54.2176 109.28 53.5456 108.512C52.9056 107.744 52.4096 106.72 52.0576 105.44C51.7376 104.128 51.5776 102.48 51.5776 100.496V86H55.4176ZM93.2446 110V96.32C93.2446 93.824 92.8766 91.952 92.1406 90.704C91.4366 89.424 90.1246 88.784 88.2046 88.784C86.5086 88.784 85.1006 89.248 83.9806 90.176C82.8926 91.072 82.1246 92.208 81.6766 93.584V110H77.8366V86H80.5246L81.2446 88.928H81.4366C82.2046 87.904 83.2286 87.072 84.5086 86.432C85.8206 85.76 87.3726 85.424 89.1646 85.424C90.4766 85.424 91.6286 85.584 92.6206 85.904C93.6126 86.192 94.4286 86.72 95.0686 87.488C95.7406 88.256 96.2366 89.296 96.5566 90.608C96.9086 91.888 97.0846 93.52 97.0846 95.504V110H93.2446ZM121.607 108.08C120.647 108.848 119.431 109.456 117.959 109.904C116.519 110.352 114.983 110.576 113.351 110.576C111.527 110.576 109.943 110.288 108.599 109.712C107.255 109.104 106.151 108.256 105.287 107.168C104.423 106.048 103.783 104.72 103.367 103.184C102.951 101.648 102.743 99.92 102.743 98C102.743 93.904 103.655 90.784 105.479 88.64C107.303 86.496 109.911 85.424 113.303 85.424C114.391 85.424 115.479 85.552 116.567 85.808C117.655 86.032 118.631 86.48 119.495 87.152C120.359 87.824 121.063 88.784 121.607 90.032C122.151 91.248 122.423 92.864 122.423 94.88C122.423 95.936 122.327 97.104 122.135 98.384H106.727C106.727 99.792 106.871 101.04 107.159 102.128C107.447 103.216 107.895 104.144 108.503 104.912C109.111 105.648 109.895 106.224 110.855 106.64C111.847 107.024 113.047 107.216 114.455 107.216C115.543 107.216 116.631 107.024 117.719 106.64C118.807 106.256 119.623 105.808 120.167 105.296L121.607 108.08ZM113.351 88.784C111.463 88.784 109.943 89.28 108.791 90.272C107.671 91.264 106.999 92.96 106.775 95.36H118.679C118.679 92.928 118.215 91.232 117.287 90.272C116.359 89.28 115.047 88.784 113.351 88.784ZM139.022 103.472C139.022 102.512 138.734 101.76 138.158 101.216C137.582 100.672 136.862 100.224 135.998 99.872C135.166 99.488 134.238 99.136 133.214 98.816C132.222 98.464 131.294 98.032 130.43 97.52C129.598 96.976 128.894 96.288 128.318 95.456C127.742 94.624 127.454 93.504 127.454 92.096C127.454 89.792 128.11 88.112 129.422 87.056C130.734 85.968 132.558 85.424 134.894 85.424C136.622 85.424 138.062 85.584 139.214 85.904C140.398 86.192 141.422 86.544 142.286 86.96L141.374 90.128C140.638 89.776 139.742 89.472 138.686 89.216C137.662 88.928 136.558 88.784 135.374 88.784C133.966 88.784 132.926 89.024 132.254 89.504C131.614 89.984 131.294 90.816 131.294 92C131.294 92.832 131.582 93.488 132.158 93.968C132.734 94.416 133.438 94.832 134.27 95.216C135.134 95.568 136.062 95.92 137.054 96.272C138.078 96.624 139.006 97.088 139.838 97.664C140.702 98.24 141.422 98.976 141.998 99.872C142.574 100.736 142.862 101.888 142.862 103.328C142.862 104.352 142.686 105.312 142.334 106.208C142.014 107.104 141.502 107.872 140.798 108.512C140.094 109.152 139.214 109.648 138.158 110C137.134 110.384 135.918 110.576 134.51 110.576C132.686 110.576 131.134 110.4 129.854 110.048C128.574 109.696 127.502 109.28 126.638 108.8L127.79 105.536C128.526 105.952 129.486 106.336 130.67 106.688C131.854 107.04 133.054 107.216 134.27 107.216C135.646 107.216 136.782 106.944 137.678 106.4C138.574 105.856 139.022 104.88 139.022 103.472Z" fill="#444955"/>
</svg>
